<svg height="900" viewBox="-435 -131.0062561 1600 900" width="1600" xmlns="http://www.w3.org/2000/svg" xmlns:xlink="http://www.w3.org/1999/xlink"><linearGradient id="a" gradientUnits="userSpaceOnUse" spreadMethod="pad" x1="373.773384438" x2="373.773384438" y1="6.65140563" y2="589.05850563"><stop offset="0" stop-color="#193747"/><stop offset=".524" stop-color="#3c929e"/><stop offset="1" stop-color="#d5d5d4"/></linearGradient><path d="m-435-131.006h1600v900h-1600z" fill="url(#a)" fill-rule="evenodd"/><g fill="#fff"><path d="m83.75 93.994h562.5c10.355 0 18.75 8.395 18.75 18.75v412.5c0 10.355-8.395 18.75-18.75 18.75h-562.5c-10.355 0-18.75-8.395-18.75-18.75v-412.5c0-10.355 8.395-18.75 18.75-18.75zm12.375 39.375v371.25c0 4.142 3.358 7.5 7.5 7.5h521.25c4.142 0 7.5-3.358 7.5-7.5v-371.25c0-4.142-3.358-7.5-7.5-7.5h-521.25c-4.142 0-7.5 3.358-7.5 7.5z"/><g transform="matrix(28.671513 0 0 28.671513 3565.343018 -3387.745605)"><path d="m-104.623 123.283c.001.001.001.001.002.002v11.996c-.001.001-.001.001-.002.002h-13.996c-.001-.001-.001-.001-.002-.002v-11.996l.002-.002zm.002-1h-14c-.55 0-1 .45-1 1v12c0 .55.45 1 1 1h14c.55 0 1-.45 1-1v-12c0-.55-.45-1-1-1z" visibility="hidden"/><path d="m-106.104 126.215c0 .828-.672 1.5-1.5 1.5s-1.5-.672-1.5-1.5.672-1.5 1.5-1.5 1.5.672 1.5 1.5z"/><path d="m-103.907 134.283h-15.255v-2l4.449-6 5.085 5h1.271l4.45-3z"/></g></g></svg>