<svg height="900" viewBox="-435 -131.0062561 1600 900" width="1600" xmlns="http://www.w3.org/2000/svg" xmlns:xlink="http://www.w3.org/1999/xlink"><linearGradient id="a" gradientUnits="userSpaceOnUse" spreadMethod="pad" x1="373.773384438" x2="373.773384438" y1="6.65140563" y2="589.05850563"><stop offset="0" stop-color="#193747"/><stop offset=".524" stop-color="#3c929e"/><stop offset="1" stop-color="#d5d5d4"/></linearGradient><path d="m-435-131.006h1600v900h-1600z" fill="url(#a)" fill-rule="evenodd"/><g fill="#fff"><path d="m83.75 93.994h562.5c10.355 0 18.75 8.395 18.75 18.75v412.5c0 10.355-8.395 18.75-18.75 18.75h-562.5c-10.355 0-18.75-8.395-18.75-18.75v-412.5c0-10.355 8.395-18.75 18.75-18.75zm12.375 39.375v371.25c0 4.142 3.358 7.5 7.5 7.5h521.25c4.142 0 7.5-3.358 7.5-7.5v-371.25c0-4.142-3.358-7.5-7.5-7.5h-521.25c-4.142 0-7.5 3.358-7.5 7.5z"/><path d="m465.249 342.341c-12.762-22.116-5.096-50.451 17.141-63.333l-23.909-41.417c-6.83 4-14.785 6.296-23.256 6.296-25.553 0-46.269-20.852-46.269-46.572h-47.835c.061 7.94-1.917 15.985-6.176 23.347-12.761 22.115-41.157 29.629-63.424 16.822l-23.911 41.417c6.889 3.908 12.853 9.642 17.08 16.99 12.747 22.085 5.112 50.36-17.034 63.272l23.91 41.417c6.814-3.969 14.708-6.236 23.149-6.236 25.477 0 46.132 20.716 46.269 46.329h47.835c-.016-7.863 1.961-15.818 6.175-23.103 12.746-22.085 41.067-29.614 63.319-16.883l23.91-41.416c-6.845-3.911-12.761-9.628-16.974-16.93zm-100.234 25.933c-27.21 0-49.28-22.054-49.28-49.279 0-27.227 22.054-49.281 49.28-49.281 27.211 0 49.28 22.054 49.28 49.281 0 27.225-22.054 49.279-49.28 49.279z"/></g></svg>